<svg width="24" height="24" viewBox="0 0 24 24" fill="none" xmlns="http://www.w3.org/2000/svg">
<path d="M0.794274 13.9824C1.24368 14.0352 1.74576 14.0617 2.27447 14.0881C2.64457 14.1145 2.9616 14.3525 3.06731 14.7224C3.25236 15.3038 3.46385 15.859 3.75445 16.3611C3.9395 16.6783 3.88663 17.0747 3.64871 17.3655C3.30505 17.7621 2.96157 18.1584 2.69722 18.5021C2.40643 18.8458 2.43286 19.3743 2.75009 19.6916L4.30961 21.2512C4.62683 21.5684 5.15533 21.5949 5.49901 21.304C5.84267 21.0132 6.21258 20.6962 6.63553 20.3525C6.92632 20.1146 7.32266 20.0617 7.6399 20.2468C8.1686 20.5111 8.72354 20.7491 9.27847 20.9339C9.62213 21.0397 9.88629 21.3569 9.91273 21.7268C9.93916 22.2556 9.99203 22.7576 10.0185 23.2071C10.0713 23.6565 10.4414 24 10.8906 24H13.1108C13.5602 24 13.9565 23.6563 13.983 23.2071C14.0358 22.7577 14.0623 22.2556 14.0887 21.7268C14.1151 21.3567 14.3531 21.0396 14.723 20.9339C15.3043 20.7489 15.8595 20.5374 16.3615 20.2468C16.6788 20.0617 17.0751 20.1146 17.3659 20.3525C17.7624 20.6962 18.1588 21.0397 18.5024 21.304C18.8461 21.5949 19.3746 21.5684 19.6918 21.2512L21.2513 19.6916C21.5686 19.3743 21.595 18.8458 21.3042 18.5021C21.0134 18.1584 20.6964 17.7885 20.3527 17.3655C20.1148 17.0747 20.0619 16.6783 20.247 16.3611C20.5113 15.8323 20.7493 15.2774 20.9341 14.7224C21.0399 14.3787 21.3571 14.1146 21.727 14.0881C22.2557 14.0617 22.7577 14.0088 23.2072 13.9824C23.6566 13.9295 24 13.5594 24 13.1101V10.8899C24 10.4404 23.6563 10.0441 23.2072 10.0176C22.7578 9.96476 22.2557 9.93832 21.727 9.91189C21.3569 9.88545 21.0398 9.64752 20.9341 9.27759C20.7491 8.69619 20.5376 8.14101 20.247 7.63892C20.0619 7.32168 20.1148 6.9253 20.3527 6.63449C20.6964 6.23794 21.0399 5.8416 21.3042 5.49791C21.595 5.15422 21.5686 4.62569 21.2513 4.30843L19.6918 2.74883C19.3746 2.43158 18.8461 2.40514 18.5024 2.69595C18.1588 2.98676 17.7888 3.30381 17.3659 3.6475C17.0751 3.88544 16.6788 3.93831 16.3615 3.75325C15.8328 3.48887 15.2779 3.25094 14.723 3.06607C14.3793 2.96032 14.1151 2.64307 14.0887 2.27318C14.0623 1.74444 14.0094 1.24236 13.983 0.792894C13.9301 0.343463 13.56 0 13.1108 0H10.8906C10.4412 0 10.0449 0.343684 10.0185 0.792894C9.9656 1.24232 9.93916 1.74444 9.91273 2.27318C9.88629 2.6433 9.64837 2.96035 9.27847 3.06607C8.6971 3.25113 8.14195 3.46263 7.6399 3.75325C7.32267 3.9383 6.92632 3.88543 6.63553 3.6475C6.23899 3.30382 5.84268 2.96032 5.49901 2.69595C5.15534 2.40514 4.62684 2.43158 4.30961 2.74883L2.75009 4.30843C2.43286 4.62568 2.40643 5.15421 2.69722 5.49791C2.98801 5.84159 3.30504 6.21153 3.64871 6.63449C3.88663 6.9253 3.9395 7.32167 3.75445 7.63892C3.49009 8.16766 3.25218 8.72263 3.06731 9.27759C2.96157 9.62128 2.64435 9.88545 2.27447 9.91189C1.74576 9.93833 1.24371 9.9912 0.794274 10.0176C0.34487 10.0705 0.00142724 10.4406 0.00142724 10.8899V13.1101C-0.0250085 13.5594 0.318655 13.9559 0.794274 13.9824ZM12.001 8.72229C13.7983 8.72229 15.2784 10.1761 15.2784 11.9999C15.2784 13.7972 13.8247 15.2775 12.001 15.2775C10.1772 15.2775 8.72363 13.7972 8.72363 11.9999C8.72363 10.2024 10.2036 8.72229 12.001 8.72229Z" fill="#FDFDFD"/>
</svg>
