<svg width="38" height="37" viewBox="0 0 38 37" fill="none" xmlns="http://www.w3.org/2000/svg">
<path d="M31.0837 12.8757V3.37565C31.0837 3.16569 31.0003 2.96432 30.8518 2.81586C30.7033 2.66739 30.502 2.58398 30.292 2.58398H25.542V7.33398L31.0837 12.8757Z" fill="#FF3263"/>
<path d="M37.4167 19.2083L19.2083 1L1 19.2083H4.95833C5.1683 19.2083 5.36966 19.2917 5.51813 19.4402C5.66659 19.5887 5.75 19.79 5.75 20V34.25C5.75 34.6699 5.91682 35.0727 6.21375 35.3696C6.51068 35.6665 6.91341 35.8333 7.33333 35.8333H31.0833C31.5033 35.8333 31.906 35.6665 32.2029 35.3696C32.4999 35.0727 32.6667 34.6699 32.6667 34.25V20C32.6667 19.79 32.7501 19.5887 32.8985 19.4402C33.047 19.2917 33.2484 19.2083 33.4583 19.2083H37.4167Z" fill="#FF3263"/>
<path d="M5.75 20V34.25C5.75 34.6699 5.91681 35.0727 6.21375 35.3696C6.51068 35.6665 6.91341 35.8333 7.33333 35.8333H31.0833C31.5033 35.8333 31.906 35.6665 32.2029 35.3696C32.4999 35.0727 32.6667 34.6699 32.6667 34.25V20.7917" stroke="#00224D" stroke-linecap="round" stroke-linejoin="round"/>
<path d="M1 19.2083L19.2083 1L37.4167 19.2083" stroke="#00224D" stroke-linecap="round" stroke-linejoin="round"/>
<path d="M25.542 2.58398H30.292C30.502 2.58398 30.7033 2.66739 30.8518 2.81586C31.0003 2.96432 31.0837 3.16569 31.0837 3.37565V8.12565" stroke="#00224D" stroke-linecap="round" stroke-linejoin="round"/>
<path d="M27.1246 20.9664C27.1246 25.0672 20.568 29.9755 19.6908 30.6089L19.6528 30.639C19.5238 30.7336 19.368 30.7847 19.2079 30.7847C19.0479 30.7847 18.892 30.7336 18.763 30.639L18.7329 30.6089C17.8478 29.9755 11.2913 25.0672 11.2913 20.9664C11.2602 20.3716 11.3479 19.7765 11.5492 19.216C11.7505 18.6554 12.0613 18.1405 12.4637 17.7013C12.866 17.2621 13.3518 16.9075 13.8926 16.6579C14.4334 16.4084 15.0185 16.2691 15.6138 16.248C16.3503 16.2632 17.07 16.4716 17.7007 16.8523C18.3315 17.233 18.8512 17.7726 19.2079 18.4172C19.5646 17.7726 20.0844 17.233 20.7151 16.8523C21.3459 16.4716 22.0655 16.2632 22.8021 16.248C23.3973 16.2691 23.9824 16.4084 24.5233 16.6579C25.0641 16.9075 25.5499 17.2621 25.9522 17.7013C26.3545 18.1405 26.6654 18.6554 26.8667 19.216C27.068 19.7765 27.1557 20.3716 27.1246 20.9664Z" stroke="#00224D" stroke-linecap="round" stroke-linejoin="round"/>
</svg>
