<svg width="43" height="29" viewBox="0 0 43 29" fill="none" xmlns="http://www.w3.org/2000/svg">
<path d="M3.50937 11.2345H19.8904V21.5299C19.8904 22.1009 19.4275 22.5638 18.8565 22.5638H4.54328C3.97227 22.5638 3.50937 22.1009 3.50937 21.5299V11.2345Z" fill="#00224D" stroke="white" stroke-width="1.3"/>
<path d="M2.85955 7.6375C-0.508271 10.3317 1.45629 10.7247 2.85955 10.5843H20.9615C23.9925 10.5843 22.2244 8.90049 20.9615 8.05856V3.42781H18.0146V5.5327L13.3839 1.74382C12.0368 0.396692 10.5774 1.18252 10.0161 1.74382L2.85955 7.6375Z" fill="#00224D" stroke="white" stroke-width="1.3"/>
<path d="M22.8746 11.2345H39.2556V21.5299C39.2556 22.1009 38.7927 22.5638 38.2217 22.5638H23.9085C23.3375 22.5638 22.8746 22.1009 22.8746 21.5299V11.2345Z" fill="#00224D" stroke="white" stroke-width="1.3"/>
<path d="M22.2248 7.6375C18.857 10.3317 20.8215 10.7247 22.2248 10.5843H40.3267C43.3577 10.5843 41.5896 8.90049 40.3267 8.05856V3.42781H37.3799V5.5327L32.7491 1.74382C31.402 0.396692 29.9426 1.18252 29.3813 1.74382L22.2248 7.6375Z" fill="#00224D" stroke="white" stroke-width="1.3"/>
<path d="M13.6129 16.2862H29.9939V26.5816C29.9939 27.1526 29.531 27.6155 28.96 27.6155H14.6468C14.0758 27.6155 13.6129 27.1526 13.6129 26.5816V16.2862Z" fill="#00224D" stroke="white" stroke-width="1.3"/>
<rect x="24" y="19" width="2" height="6" fill="#00224D" stroke="white" stroke-width="2"/>
<path d="M12.9631 12.6893C9.59524 15.3835 11.5598 15.7764 12.9631 15.6361H31.065C34.096 15.6361 32.3279 13.9522 31.065 13.1103V8.47957H28.1181V10.5845L23.4874 6.79558C22.1403 5.44845 20.6809 6.23427 20.1196 6.79558L12.9631 12.6893Z" fill="#00224D" stroke="white" stroke-width="1.3"/>
</svg>
