<svg width="43" height="29" viewBox="0 0 43 29" fill="none" xmlns="http://www.w3.org/2000/svg">
<path d="M3.35938 11.0845H20.0404V21.5299C20.0404 22.1837 19.5104 22.7138 18.8565 22.7138H4.54328C3.88943 22.7138 3.35938 22.1837 3.35938 21.5299V11.0845Z" fill="white" stroke="#00224D"/>
<path d="M2.85955 7.6375C-0.508271 10.3317 1.45629 10.7247 2.85955 10.5843H20.9615C23.9925 10.5843 22.2244 8.90049 20.9615 8.05856V3.42781H18.0146V5.5327L13.3839 1.74382C12.0368 0.396692 10.5774 1.18252 10.0161 1.74382L2.85955 7.6375Z" fill="white" stroke="#00224D"/>
<path d="M22.7246 11.0845H39.4056V21.5299C39.4056 22.1837 38.8756 22.7138 38.2217 22.7138H23.9085C23.2547 22.7138 22.7246 22.1837 22.7246 21.5299V11.0845Z" fill="white" stroke="#00224D"/>
<path d="M22.2248 7.6375C18.857 10.3317 20.8215 10.7247 22.2248 10.5843H40.3267C43.3577 10.5843 41.5896 8.90049 40.3267 8.05856V3.42781H37.3799V5.5327L32.7491 1.74382C31.402 0.396692 29.9426 1.18252 29.3813 1.74382L22.2248 7.6375Z" fill="white" stroke="#00224D"/>
<path d="M13.4629 16.1362H30.1439V26.5816C30.1439 27.2355 29.6139 27.7655 28.96 27.7655H14.6468C13.9929 27.7655 13.4629 27.2355 13.4629 26.5816V16.1362Z" fill="white" stroke="#00224D"/>
<rect x="23.5" y="18.5" width="3" height="7" fill="white" stroke="#00224D"/>
<path d="M12.9631 12.6893C9.59524 15.3835 11.5598 15.7764 12.9631 15.6361H31.065C34.096 15.6361 32.3279 13.9522 31.065 13.1103V8.47957H28.1181V10.5845L23.4874 6.79558C22.1403 5.44845 20.6809 6.23427 20.1196 6.79558L12.9631 12.6893Z" fill="white" stroke="#00224D"/>
</svg>
