<svg width="7" height="14" viewBox="0 0 7 14" fill="none" xmlns="http://www.w3.org/2000/svg">
<path d="M5.11922 0C4.1807 0 3.41281 0.767883 3.41281 1.70641C3.41281 2.64493 4.1807 3.41281 5.11922 3.41281C6.05774 3.41281 6.82563 2.64493 6.82563 1.70641C6.82563 0.767883 6.05774 0 5.11922 0ZM2.55961 4.26602C1.14329 4.26602 0 5.40931 0 6.82563H1.70641C1.70641 6.34783 2.08182 5.97242 2.55961 5.97242C3.0374 5.97242 3.41281 6.34783 3.41281 6.82563C3.41281 7.30342 1.70641 9.62413 1.70641 11.0916C1.70641 12.5592 2.8497 13.6513 4.26602 13.6513C5.68233 13.6513 6.82563 12.508 6.82563 11.0916H5.11922C5.11922 11.5694 4.74381 11.9448 4.26602 11.9448C3.78822 11.9448 3.41281 11.5694 3.41281 11.0916C3.41281 10.4773 5.11922 7.95185 5.11922 6.82563C5.11922 5.44344 3.97593 4.26602 2.55961 4.26602Z" fill="#195198"/>
</svg>
