<svg width="31" height="36" viewBox="0 0 31 36" fill="none" xmlns="http://www.w3.org/2000/svg">
<path d="M4.66258 13.0292C5.06258 20.6292 3.82925 23.1959 3.16258 23.5292H28.1626C26 23.5 25.9959 16.0292 26.1626 13.0292C24.5626 6.62915 20.5 4.69586 18.5 4.52922C18.5 1.32922 16.4959 0.862551 15.6626 1.02922C13.6626 1.02922 13.1626 3.36255 13.1626 4.52922C8.36258 4.92922 5.49592 10.3626 4.66258 13.0292Z" fill="#FF3263"/>
<path d="M1.66258 26.5293H29.6626C30.8626 27.3293 30.1626 28.5293 29.6626 29.0293H19.6626C19.6626 33.4294 16.9959 34.5293 15.6626 34.5293C12.0626 34.9293 11.1626 31.0293 11.1626 29.0293H1.66258C0.462582 28.2293 1.16258 27.0293 1.66258 26.5293Z" fill="#FF3263"/>
<path d="M11.1626 29.0293H1.66258C0.462582 28.2293 1.16258 27.0293 1.66258 26.5293H29.6626C30.8626 27.3293 30.1626 28.5293 29.6626 29.0293H19.6626M11.1626 29.0293C11.1626 31.0293 12.0626 34.9293 15.6626 34.5293C16.9959 34.5293 19.6626 33.4294 19.6626 29.0293M11.1626 29.0293H19.6626M3.16258 23.5292C3.82925 23.1959 5.06258 20.6292 4.66258 13.0292C5.49592 10.3626 8.36258 4.92922 13.1626 4.52922C13.1626 3.36255 13.6626 1.02922 15.6626 1.02922C16.4959 0.862551 18.5 1.32922 18.5 4.52922C20.5 4.69586 24.5626 6.62915 26.1626 13.0292C25.9959 16.0292 26 23.5 28.1626 23.5292H3.16258Z" stroke="#00224D"/>
</svg>
