<svg width="15" height="14" viewBox="0 0 15 14" fill="none" xmlns="http://www.w3.org/2000/svg">
<path fill-rule="evenodd" clip-rule="evenodd" d="M3.30239 3.89444C3.54441 3.89444 3.78406 3.84407 4.00766 3.74622C4.23125 3.64836 4.43442 3.50493 4.60555 3.32411C4.77669 3.1433 4.91244 2.92864 5.00506 2.69239C5.09767 2.45614 5.14534 2.20293 5.14534 1.94722C5.14534 1.69151 5.09767 1.4383 5.00506 1.20205C4.91244 0.965803 4.77669 0.751143 4.60555 0.570327C4.43442 0.389511 4.23125 0.24608 4.00766 0.148223C3.78406 0.0503663 3.54441 -5.38874e-09 3.30239 0C2.81375 7.69323e-09 2.34512 0.205093 1.9996 0.570161C1.65408 0.935229 1.45997 1.43037 1.45997 1.94665C1.45997 2.46294 1.65408 2.95807 1.9996 3.32314C2.34512 3.68821 2.81375 3.8933 3.30239 3.8933V3.89444ZM11.5444 3.89444C11.7864 3.89444 12.0261 3.84407 12.2497 3.74622C12.4733 3.64836 12.6764 3.50493 12.8476 3.32411C13.0187 3.1433 13.1544 2.92864 13.2471 2.69239C13.3397 2.45614 13.3873 2.20293 13.3873 1.94722C13.3873 1.69151 13.3397 1.4383 13.2471 1.20205C13.1544 0.965803 13.0187 0.751143 12.8476 0.570327C12.6764 0.389511 12.4733 0.24608 12.2497 0.148223C12.0261 0.0503663 11.7864 -5.38874e-09 11.5444 0C11.0557 7.69323e-09 10.5871 0.205093 10.2416 0.570161C9.89608 0.935229 9.70197 1.43037 9.70197 1.94665C9.70197 2.46294 9.89608 2.95807 10.2416 3.32314C10.5871 3.68821 11.0557 3.8933 11.5444 3.8933V3.89444ZM11.5444 4.29966C10.8048 4.29845 10.0864 4.56078 9.50537 5.04427C9.94564 5.4449 10.2736 5.96537 10.4535 6.54912C10.6334 7.13286 10.6585 7.75754 10.526 8.35528H14.3086C14.451 8.35528 14.5876 8.29549 14.6884 8.18905C14.7891 8.08262 14.8457 7.93826 14.8457 7.78774C14.8457 7.32968 14.7603 6.8761 14.5944 6.45291C14.4285 6.02972 14.1853 5.64519 13.8788 5.3213C13.5722 4.9974 13.2083 4.74047 12.8077 4.56517C12.4072 4.38988 11.9779 4.29966 11.5444 4.29966ZM3.30239 4.29966C4.04198 4.29845 4.76036 4.56078 5.3414 5.04427C4.90113 5.4449 4.57321 5.96537 4.39328 6.54912C4.21335 7.13286 4.18829 7.75754 4.32082 8.35528H0.537148C0.394688 8.35528 0.258062 8.29549 0.157327 8.18905C0.0565922 8.08262 0 7.93826 0 7.78774C0.000141056 7.32968 0.0856717 6.87613 0.251709 6.453C0.417745 6.02986 0.661037 5.64542 0.967692 5.32163C1.27435 4.99784 1.63836 4.74103 2.03895 4.56587C2.43954 4.39072 2.86885 4.30065 3.30239 4.3008V4.29966ZM7.42339 9.53916C7.66534 9.53916 7.90492 9.48881 8.12845 9.39098C8.35198 9.29315 8.55509 9.14976 8.72618 8.969C8.89726 8.78824 9.03297 8.57364 9.12556 8.33746C9.21815 8.10128 9.26581 7.84815 9.26581 7.59251C9.26581 7.33687 9.21815 7.08374 9.12556 6.84756C9.03297 6.61138 8.89726 6.39678 8.72618 6.21602C8.55509 6.03526 8.35198 5.89187 8.12845 5.79404C7.90492 5.69621 7.66534 5.64586 7.42339 5.64586C6.93475 5.64586 6.46612 5.85095 6.1206 6.21602C5.77508 6.58109 5.58097 7.07622 5.58097 7.59251C5.58097 8.10879 5.77508 8.60393 6.1206 8.969C6.46612 9.33407 6.93475 9.53916 7.42339 9.53916ZM4.12208 13.4325C4.12208 12.5074 4.46989 11.6202 5.08901 10.966C5.70812 10.3119 6.54783 9.94438 7.42339 9.94438C8.29895 9.94438 9.13865 10.3119 9.75777 10.966C10.3769 11.6202 10.7247 12.5074 10.7247 13.4325C10.7247 13.583 10.6681 13.7273 10.5674 13.8338C10.4666 13.9402 10.33 14 10.1876 14H4.65922C4.51676 14 4.38014 13.9402 4.2794 13.8338C4.17867 13.7273 4.12208 13.583 4.12208 13.4325Z" fill="#0D3D7B"/>
</svg>
